<svg width="8" height="13" viewBox="0 0 8 13" fill="none" xmlns="http://www.w3.org/2000/svg">
<path d="M6.93331 12.5753C7.05553 12.442 7.11942 12.2864 7.12497 12.1087C7.13053 11.9309 7.06664 11.7753 6.93331 11.642L1.68331 6.392L6.93331 1.142C7.05553 1.01978 7.11942 0.867 7.12497 0.683667C7.13053 0.500333 7.06664 0.342 6.93331 0.208667C6.81108 0.0753333 6.65831 0.00588889 6.47497 0.000333333C6.29164 -0.00522222 6.13331 0.0586668 5.99997 0.192L0.149972 6.042C0.0944166 6.09756 0.0555282 6.15311 0.0333061 6.20867C0.0110836 6.26422 -2.67029e-05 6.32533 -2.67029e-05 6.392C-2.67029e-05 6.45867 0.0110836 6.51978 0.0333061 6.57533C0.0555282 6.63089 0.0944166 6.68645 0.149972 6.742L5.99997 12.592C6.12219 12.7142 6.27497 12.7753 6.45831 12.7753C6.64164 12.7753 6.79997 12.7087 6.93331 12.5753Z" fill="#FAFAFA"/>
</svg>
