<svg width="8" height="13" viewBox="0 0 8 13" fill="none" xmlns="http://www.w3.org/2000/svg">
<path d="M0.192 12.6876C0.0697777 12.5543 0.00588889 12.3987 0.000333334 12.221C-0.00522222 12.0432 0.0586666 11.8876 0.192 11.7543L5.442 6.5043L0.192 1.2543C0.0697777 1.13208 0.00588889 0.979305 0.000333334 0.795971C-0.00522222 0.612638 0.0586666 0.454305 0.192 0.320971C0.314222 0.187638 0.467 0.118194 0.650333 0.112638C0.833667 0.107082 0.992 0.170971 1.12533 0.304305L6.97533 6.15431C7.03089 6.20986 7.06978 6.26542 7.092 6.32097C7.11422 6.37653 7.12533 6.43764 7.12533 6.5043C7.12533 6.57097 7.11422 6.63208 7.092 6.68764C7.06978 6.74319 7.03089 6.79875 6.97533 6.85431L1.12533 12.7043C1.00311 12.8265 0.850333 12.8876 0.667 12.8876C0.483667 12.8876 0.325333 12.821 0.192 12.6876Z" fill="#514A92"/>
</svg>
